<svg width="149" height="23" viewBox="0 0 149 23" fill="none" xmlns="http://www.w3.org/2000/svg">
<path d="M0.89395 7.28789V5.06395H11.372V7.28789H7.46611V17.822H4.79987V7.28789H0.89395ZM12.0542 17.822V8.25347H14.627V9.92298H14.7266C14.9011 9.3291 15.1939 8.88058 15.605 8.57741C16.0161 8.27008 16.4896 8.11642 17.0253 8.11642C17.1582 8.11642 17.3015 8.12473 17.4552 8.14134C17.6088 8.15795 17.7438 8.18079 17.8601 8.20986V10.5646C17.7355 10.5272 17.5632 10.494 17.343 10.465C17.1229 10.4359 16.9215 10.4213 16.7388 10.4213C16.3484 10.4213 15.9995 10.5065 15.6922 10.6768C15.389 10.8429 15.1482 11.0754 14.9696 11.3745C14.7952 11.6735 14.7079 12.0182 14.7079 12.4086V17.822H12.0542ZM23.1474 18.0089C22.1631 18.0089 21.3159 17.8096 20.6058 17.4109C19.8997 17.008 19.3557 16.4391 18.9736 15.704C18.5915 14.9648 18.4005 14.0905 18.4005 13.0814C18.4005 12.0971 18.5915 11.2333 18.9736 10.4899C19.3557 9.74648 19.8935 9.16713 20.5871 8.75183C21.2848 8.33653 22.1029 8.12888 23.0415 8.12888C23.6728 8.12888 24.2604 8.23063 24.8045 8.43413C25.3527 8.63347 25.8303 8.93457 26.2373 9.33741C26.6484 9.74025 26.9682 10.2469 27.1966 10.8574C27.425 11.4638 27.5392 12.1739 27.5392 12.9879V13.7168H19.4595V12.0722H25.0412C25.0412 11.6901 24.9581 11.3516 24.792 11.0568C24.6259 10.7619 24.3954 10.5314 24.1005 10.3653C23.8098 10.195 23.4713 10.1099 23.0851 10.1099C22.6823 10.1099 22.3251 10.2033 22.0136 10.3902C21.7063 10.5729 21.4654 10.82 21.291 11.1315C21.1166 11.4388 21.0273 11.7815 21.0231 12.1594V13.723C21.0231 14.1964 21.1104 14.6055 21.2848 14.9502C21.4634 15.2949 21.7146 15.5607 22.0386 15.7476C22.3625 15.9345 22.7466 16.0279 23.191 16.0279C23.4859 16.0279 23.7558 15.9864 24.0009 15.9033C24.2459 15.8203 24.4556 15.6957 24.63 15.5296C24.8045 15.3634 24.9374 15.1599 25.0287 14.9191L27.4832 15.081C27.3586 15.6708 27.1032 16.1857 26.7169 16.626C26.3349 17.062 25.8406 17.4026 25.2343 17.6476C24.6321 17.8885 23.9365 18.0089 23.1474 18.0089ZM31.9248 12.2902V17.822H29.271V8.25347H31.8002V9.94167H31.9124C32.1242 9.38517 32.4793 8.94495 32.9776 8.62101C33.476 8.29292 34.0802 8.12888 34.7904 8.12888C35.4549 8.12888 36.0342 8.27423 36.5285 8.56495C37.0227 8.85566 37.4068 9.27096 37.6809 9.81085C37.955 10.3466 38.0921 10.9862 38.0921 11.7296V17.822H35.4383V12.203C35.4424 11.6174 35.2929 11.1606 34.9898 10.8325C34.6866 10.5003 34.2692 10.3341 33.7376 10.3341C33.3805 10.3341 33.0648 10.411 32.7907 10.5646C32.5208 10.7183 32.309 10.9426 32.1553 11.2374C32.0058 11.5281 31.929 11.8791 31.9248 12.2902ZM43.7096 17.9778C42.9828 17.9778 42.3245 17.7909 41.7348 17.4171C41.1492 17.0392 40.6841 16.4848 40.3394 15.7538C39.9988 15.0187 39.8286 14.1175 39.8286 13.0502C39.8286 11.9538 40.0051 11.0422 40.3581 10.3154C40.7111 9.58451 41.1804 9.03839 41.7659 8.67708C42.3557 8.31161 43.0015 8.12888 43.7033 8.12888C44.2391 8.12888 44.6855 8.22025 45.0427 8.40298C45.404 8.58156 45.6947 8.80582 45.9148 9.07577C46.1391 9.34156 46.3093 9.6032 46.4256 9.86069H46.5066V5.06395H49.1542V17.822H46.5378V16.2896H46.4256C46.301 16.5554 46.1245 16.8191 45.8961 17.0807C45.6719 17.3382 45.3791 17.5521 45.0178 17.7224C44.6606 17.8926 44.2245 17.9778 43.7096 17.9778ZM44.5505 15.866C44.9783 15.866 45.3396 15.7497 45.6345 15.5171C45.9335 15.2804 46.1619 14.9502 46.3197 14.5266C46.4817 14.103 46.5627 13.6067 46.5627 13.0378C46.5627 12.4688 46.4838 11.9746 46.326 11.5551C46.1681 11.1357 45.9397 10.8117 45.6407 10.5833C45.3417 10.3549 44.9783 10.2407 44.5505 10.2407C44.1145 10.2407 43.7469 10.3591 43.4479 10.5958C43.1489 10.8325 42.9226 11.1606 42.7689 11.58C42.6152 11.9995 42.5384 12.4854 42.5384 13.0378C42.5384 13.5943 42.6152 14.0864 42.7689 14.5142C42.9267 14.9378 43.153 15.27 43.4479 15.5109C43.7469 15.7476 44.1145 15.866 44.5505 15.866ZM51.3361 17.822V8.25347H53.9898V17.822H51.3361ZM52.6692 7.02002C52.2746 7.02002 51.9362 6.8892 51.6538 6.62756C51.3755 6.36177 51.2364 6.04406 51.2364 5.67444C51.2364 5.30897 51.3755 4.99542 51.6538 4.73378C51.9362 4.46799 52.2746 4.33509 52.6692 4.33509C53.0637 4.33509 53.4001 4.46799 53.6784 4.73378C53.9608 4.99542 54.102 5.30897 54.102 5.67444C54.102 6.04406 53.9608 6.36177 53.6784 6.62756C53.4001 6.8892 53.0637 7.02002 52.6692 7.02002ZM58.7695 12.2902V17.822H56.1157V8.25347H58.6449V9.94167H58.757C58.9688 9.38517 59.3239 8.94495 59.8222 8.62101C60.3206 8.29292 60.9249 8.12888 61.635 8.12888C62.2995 8.12888 62.8789 8.27423 63.3731 8.56495C63.8673 8.85566 64.2514 9.27096 64.5255 9.81085C64.7996 10.3466 64.9367 10.9862 64.9367 11.7296V17.822H62.2829V12.203C62.2871 11.6174 62.1376 11.1606 61.8344 10.8325C61.5312 10.5003 61.1138 10.3341 60.5823 10.3341C60.2251 10.3341 59.9095 10.411 59.6354 10.5646C59.3654 10.7183 59.1536 10.9426 58.9999 11.2374C58.8504 11.5281 58.7736 11.8791 58.7695 12.2902ZM71.3391 21.6096C70.4794 21.6096 69.7423 21.4912 69.1276 21.2545C68.5171 21.0219 68.0312 20.7042 67.6699 20.3014C67.3086 19.8985 67.0739 19.4459 66.966 18.9434L69.4204 18.6132C69.4952 18.8042 69.6135 18.9828 69.7755 19.1489C69.9375 19.315 70.1513 19.4479 70.4171 19.5476C70.6871 19.6514 71.0152 19.7034 71.4014 19.7034C71.9787 19.7034 72.4542 19.5622 72.828 19.2797C73.2059 19.0015 73.3948 18.5343 73.3948 17.8781V16.1276H73.2827C73.1664 16.3934 72.992 16.6447 72.7594 16.8814C72.5269 17.1181 72.2278 17.3112 71.8624 17.4607C71.4969 17.6102 71.0608 17.685 70.5542 17.685C69.8357 17.685 69.1816 17.5189 68.5919 17.1866C68.0063 16.8502 67.5391 16.3373 67.1902 15.6479C66.8455 14.9544 66.6732 14.0781 66.6732 13.0191C66.6732 11.9351 66.8497 11.0298 67.2027 10.303C67.5557 9.57621 68.025 9.03216 68.6106 8.67085C69.2003 8.30954 69.8461 8.12888 70.5479 8.12888C71.0837 8.12888 71.5322 8.22025 71.8935 8.40298C72.2548 8.58156 72.5456 8.80582 72.7657 9.07577C72.9899 9.34156 73.1623 9.6032 73.2827 9.86069H73.3824V8.25347H76.0175V17.9155C76.0175 18.7295 75.8181 19.4106 75.4194 19.9588C75.0208 20.507 74.4684 20.9181 73.7624 21.1922C73.0605 21.4705 72.2528 21.6096 71.3391 21.6096ZM71.3952 15.6915C71.8229 15.6915 72.1842 15.5856 72.4791 15.3738C72.7781 15.1579 73.0065 14.8505 73.1644 14.4519C73.3263 14.049 73.4073 13.5673 73.4073 13.0066C73.4073 12.4459 73.3284 11.96 73.1706 11.5489C73.0128 11.1336 72.7844 10.8117 72.4853 10.5833C72.1863 10.3549 71.8229 10.2407 71.3952 10.2407C70.9591 10.2407 70.5916 10.3591 70.2925 10.5958C69.9935 10.8283 69.7672 11.1523 69.6135 11.5676C69.4599 11.9829 69.383 12.4626 69.383 13.0066C69.383 13.559 69.4599 14.0366 69.6135 14.4394C69.7713 14.8381 69.9977 15.1475 70.2925 15.3676C70.5916 15.5836 70.9591 15.6915 71.3952 15.6915ZM92.9104 5.06395V17.822H90.5806L85.0301 9.79216H84.9366V17.822H82.2392V5.06395H84.6065L90.1134 13.0876H90.2255V5.06395H92.9104ZM99.4125 18.0089C98.4449 18.0089 97.608 17.8033 96.902 17.3922C96.2001 16.9769 95.6582 16.3996 95.2761 15.6604C94.894 14.917 94.703 14.0552 94.703 13.0751C94.703 12.0867 94.894 11.2229 95.2761 10.4836C95.6582 9.74025 96.2001 9.16298 96.902 8.75183C97.608 8.33653 98.4449 8.12888 99.4125 8.12888C100.38 8.12888 101.215 8.33653 101.917 8.75183C102.623 9.16298 103.167 9.74025 103.549 10.4836C103.931 11.2229 104.122 12.0867 104.122 13.0751C104.122 14.0552 103.931 14.917 103.549 15.6604C103.167 16.3996 102.623 16.9769 101.917 17.3922C101.215 17.8033 100.38 18.0089 99.4125 18.0089ZM99.425 15.9532C99.8652 15.9532 100.233 15.8286 100.528 15.5794C100.822 15.3261 101.045 14.9814 101.194 14.5453C101.348 14.1092 101.425 13.6129 101.425 13.0564C101.425 12.4999 101.348 12.0037 101.194 11.5676C101.045 11.1315 100.822 10.7868 100.528 10.5335C100.233 10.2801 99.8652 10.1535 99.425 10.1535C98.9806 10.1535 98.6068 10.2801 98.3037 10.5335C98.0046 10.7868 97.7783 11.1315 97.6246 11.5676C97.4751 12.0037 97.4004 12.4999 97.4004 13.0564C97.4004 13.6129 97.4751 14.1092 97.6246 14.5453C97.7783 14.9814 98.0046 15.3261 98.3037 15.5794C98.6068 15.8286 98.9806 15.9532 99.425 15.9532ZM107.495 17.822L104.891 8.25347H107.576L109.059 14.6824H109.146L110.691 8.25347H113.326L114.896 14.645H114.977L116.435 8.25347H119.113L116.516 17.822H113.706L112.062 11.8043H111.943L110.299 17.822H107.495Z" fill="white"/>
<g clip-path="url(#clip0_2_108)">
<path d="M141.497 5.67522C141.707 5.4655 141.991 5.34769 142.288 5.34769C142.585 5.34769 142.869 5.4655 143.079 5.67522L148.113 10.7091C148.323 10.9189 148.44 11.2034 148.44 11.5C148.44 11.7966 148.323 12.0811 148.113 12.2909L143.079 17.3248C142.868 17.5285 142.585 17.6413 142.292 17.6388C141.999 17.6362 141.718 17.5186 141.511 17.3112C141.303 17.1037 141.186 16.8232 141.183 16.5299C141.181 16.2366 141.293 15.954 141.497 15.743L144.525 12.6186H133.898C133.602 12.6186 133.317 12.5008 133.107 12.291C132.897 12.0812 132.78 11.7967 132.78 11.5C132.78 11.2033 132.897 10.9188 133.107 10.709C133.317 10.4992 133.602 10.3814 133.898 10.3814H144.525L141.497 7.25698C141.287 7.0472 141.17 6.76272 141.17 6.4661C141.17 6.16948 141.287 5.88499 141.497 5.67522Z" fill="white"/>
</g>
<defs>
<clipPath id="clip0_2_108">
<rect width="16.7797" height="16.7797" fill="white" transform="translate(132.22 3.11017)"/>
</clipPath>
</defs>
</svg>
