<svg width="43" height="44" viewBox="0 0 43 44" fill="none" xmlns="http://www.w3.org/2000/svg">
<g filter="url(#filter0_d_2_84)">
<path d="M26.625 3.41667C28.2228 3.41651 29.7886 3.86451 31.1445 4.70976C32.5004 5.55501 33.592 6.76363 34.2954 8.19829L34.456 8.54167H36.875C37.1644 8.54165 37.449 8.61516 37.7022 8.75528C37.9554 8.89541 38.1689 9.09756 38.3226 9.34278C38.4763 9.58799 38.5652 9.86823 38.5809 10.1572C38.5966 10.4462 38.5387 10.7344 38.4125 10.9948L38.2963 11.1981L35.645 15.1734C35.4417 15.4791 35.3422 15.8421 35.3614 16.2087L35.3853 16.4273L35.6262 17.7496C37.3157 27.0395 30.3167 35.6034 20.9465 35.8682L20.4989 35.875H6.12497C5.81569 35.875 5.5122 35.7911 5.24687 35.6322C4.98155 35.4733 4.76434 35.2453 4.61844 34.9726C4.47253 34.6999 4.40339 34.3927 4.41839 34.0838C4.4334 33.7749 4.53199 33.4758 4.70364 33.2185L11.5233 22.9515L14.9605 17.835L17.4222 14.1399C17.8533 13.494 18.0833 12.7349 18.0833 11.9583C18.0833 9.69294 18.9832 7.52034 20.5851 5.91846C22.187 4.31659 24.3596 3.41667 26.625 3.41667ZM26.625 6.83333C25.3177 6.83326 24.0599 7.33272 23.1088 8.22953C22.1577 9.12633 21.5852 10.3527 21.5085 11.6577L21.5 11.9583C21.5002 13.1486 21.2112 14.3212 20.6578 15.375C22.2415 15.3782 23.7592 16.0095 24.8779 17.1305C25.9967 18.2514 26.625 19.7705 26.625 21.3542C26.625 23.6912 25.4718 25.5054 23.9224 26.867C22.4037 28.1995 20.4186 29.1835 18.4557 29.9522C17.0446 30.504 15.5755 30.9704 14.2037 31.3787L10.881 32.3439L10.4983 32.4583H20.4972C27.9592 32.4583 33.5984 25.7019 32.2625 18.3612L32.0233 17.0389C31.7854 15.7322 32.0641 14.3842 32.8006 13.2789L33.6821 11.9583C32.7596 11.9583 31.8508 11.6953 31.5877 10.6771C31.3036 9.5769 30.662 8.60231 29.7637 7.90653C28.8653 7.21075 27.7612 6.83324 26.625 6.83333ZM20.6458 18.7917C20.1828 18.7917 19.5132 18.9113 18.876 19.1487C18.2353 19.3879 17.8817 19.6527 17.7587 19.7945L11.9777 28.4677C13.6826 27.9774 15.5054 27.4375 17.2103 26.7696C19.0331 26.0572 20.5894 25.2458 21.6674 24.2993C22.7129 23.382 23.2083 22.4338 23.2083 21.3542C23.2083 20.6746 22.9383 20.0228 22.4578 19.5422C21.9772 19.0616 21.3254 18.7917 20.6458 18.7917ZM26.625 10.25C27.0781 10.25 27.5126 10.43 27.8329 10.7504C28.1533 11.0707 28.3333 11.5053 28.3333 11.9583C28.3333 12.4114 28.1533 12.8459 27.8329 13.1663C27.5126 13.4867 27.0781 13.6667 26.625 13.6667C26.1719 13.6667 25.7374 13.4867 25.417 13.1663C25.0966 12.8459 24.9166 12.4114 24.9166 11.9583C24.9166 11.5053 25.0966 11.0707 25.417 10.7504C25.7374 10.43 26.1719 10.25 26.625 10.25Z" fill="#524852"/>
</g>
<defs>
<filter id="filter0_d_2_84" x="-3" y="0" width="49" height="49" filterUnits="userSpaceOnUse" color-interpolation-filters="sRGB">
<feFlood flood-opacity="0" result="BackgroundImageFix"/>
<feColorMatrix in="SourceAlpha" type="matrix" values="0 0 0 0 0 0 0 0 0 0 0 0 0 0 0 0 0 0 127 0" result="hardAlpha"/>
<feOffset dy="4"/>
<feGaussianBlur stdDeviation="2"/>
<feComposite in2="hardAlpha" operator="out"/>
<feColorMatrix type="matrix" values="0 0 0 0 0 0 0 0 0 0 0 0 0 0 0 0 0 0 0.25 0"/>
<feBlend mode="normal" in2="BackgroundImageFix" result="effect1_dropShadow_2_84"/>
<feBlend mode="normal" in="SourceGraphic" in2="effect1_dropShadow_2_84" result="shape"/>
</filter>
</defs>
</svg>
